<svg xmlns="http://www.w3.org/2000/svg" viewBox="0 0 54.18 116.64"><defs><style>.cls-1{fill:#eaeaea;}.cls-2{fill:#fff;}</style></defs><title>bag</title><g id="Layer_2" data-name="Layer 2"><g id="text"><rect class="cls-1" x="2.1" y="108.24" width="13.78" height="8.41" rx="3.99"/><rect class="cls-1" x="38.76" y="108.24" width="13.78" height="8.41" rx="3.99"/><path class="cls-2" d="M50,40.63H4.2A4.2,4.2,0,0,0,0,44.83V104.6a4.2,4.2,0,0,0,4.2,4.21H50a4.21,4.21,0,0,0,4.21-4.21V44.83A4.21,4.21,0,0,0,50,40.63ZM6.42,51.31H47.84v3H6.42Z"/><rect class="cls-2" x="-0.44" y="21.74" width="38.23" height="4.2" rx="1.99" transform="translate(42.53 5.16) rotate(90)"/><rect class="cls-2" x="15.85" y="21.74" width="38.23" height="4.2" rx="1.99" transform="translate(58.81 -11.12) rotate(90)"/><path class="cls-1" d="M14.5,0H38.62a2.12,2.12,0,0,1,2.12,2.12v2.4a2.13,2.13,0,0,1-2.12,2.13H14.5a2.12,2.12,0,0,1-2.12-2.12V2.12A2.12,2.12,0,0,1,14.5,0Z"/><path class="cls-1" d="M54.18,90.83V104.6A4.21,4.21,0,0,1,50,108.81H4.2A4.2,4.2,0,0,1,0,104.6V90.83Z"/></g></g></svg>