<svg xmlns="http://www.w3.org/2000/svg" viewBox="0 0 60.43 60.44"><defs><style>.cls-1{fill:#eaeaea;}</style></defs><title>Asset 92</title><g id="Layer_2" data-name="Layer 2"><g id="text"><path class="cls-1" d="M30.22,60.44a30.25,30.25,0,1,1,7.2-.88A29.52,29.52,0,0,1,30.22,60.44Zm0-56.95A26.73,26.73,0,1,0,56.94,30.22,26.76,26.76,0,0,0,30.22,3.49Z"/><path class="cls-1" d="M14.2,27.94,20,22.87a1.5,1.5,0,0,0,.45-1.65,1.44,1.44,0,0,0-1.35-1,1.16,1.16,0,0,0-1,.42l-6.76,5.9a1.07,1.07,0,0,0-.4.39,1.5,1.5,0,0,0,.1,1.68l5.17,7.47c.11.14.22.26.32.37l.08,0a1.6,1.6,0,0,0,.6.21,1.33,1.33,0,0,0,1-.32,1.18,1.18,0,0,0,.44-.45,1.38,1.38,0,0,0-.06-1.65Z"/><path class="cls-1" d="M50.92,31.17a1,1,0,0,0-.25-.47l-5.13-7.4a1.39,1.39,0,0,0-.92-.66h0a1.43,1.43,0,0,0-1.58.68,1.46,1.46,0,0,0,.05,1.7l4.4,6.32-5.8,5.06A1.44,1.44,0,0,0,41.22,38a1.28,1.28,0,0,0,.29.54,1.32,1.32,0,0,0,.92.56,1.49,1.49,0,0,0,.68-.08,1.13,1.13,0,0,0,.53-.32l6.78-6A1.46,1.46,0,0,0,50.92,31.17Z"/><path class="cls-1" d="M21.08,44.87c-.82-.67-1.43-1.24-.88-2.15L37.47,14.41c.55-.91,1.39-.68,2.3-.12s1.55,1.23,1,2.14L23.5,44.73A1.56,1.56,0,0,1,21.08,44.87Z"/></g></g></svg>