<svg xmlns="http://www.w3.org/2000/svg" viewBox="0 0 60.06 60.06"><defs><style>.cls-1{fill:#78d5cb;}</style></defs><title>Asset 88</title><g id="Layer_2" data-name="Layer 2"><g id="bg"><polygon class="cls-1" points="30.03 28.74 19.71 20.33 40.34 20.33 30.03 28.74"/><path class="cls-1" d="M31.45,33.36,43.9,23.21V39.74H16.16V23.21L28.61,33.36a2.23,2.23,0,0,0,2.84,0Z"/><path class="cls-1" d="M30,0a30,30,0,1,0,30,30A30,30,0,0,0,30,0ZM48,40.14a3.68,3.68,0,0,1-3.68,3.68H15.75a3.68,3.68,0,0,1-3.68-3.68V19.92a3.78,3.78,0,0,1,3.68-3.68H44.31A3.6,3.6,0,0,1,48,19.92Z"/></g></g></svg>