<svg xmlns="http://www.w3.org/2000/svg" viewBox="0 0 107.73 88.04"><defs><style>.cls-1{fill:#fff;}.cls-2{fill:#eaeaea;}</style></defs><title>drink</title><g id="Layer_2" data-name="Layer 2"><g id="text"><rect class="cls-1" x="64.04" y="39.63" width="34.64" height="48.41"/><path class="cls-1" d="M107.73,15.67V11.74H91.32a2,2,0,0,0-1.88,1.41l-4.81,16.3H64v6.88H98.68V29.45h-10L92.8,15.67Z"/><path class="cls-1" d="M53.62,16a3.7,3.7,0,0,1-.07.76H.74A7.91,7.91,0,0,1,0,13.42a8.1,8.1,0,0,1,8.1-8.1,7.84,7.84,0,0,1,2.67.46,3.91,3.91,0,0,1,6.72-.46A6.65,6.65,0,0,1,29.66,3.16a3.39,3.39,0,0,1,1.8-.53A3.33,3.33,0,0,1,34.8,6a3.39,3.39,0,0,1-.07.64,7,7,0,0,1,3.93,2.78,5.46,5.46,0,0,1,10.19,2.75s0,.06,0,.11a3.66,3.66,0,0,1,.88-.11A3.91,3.91,0,0,1,53.62,16Z"/><polygon class="cls-1" points="4.42 83.08 50.45 83.08 50.26 86.91 4.61 86.91 4.42 83.08"/><polygon class="cls-2" points="1.78 30.82 53.08 30.82 50.65 79.27 4.22 79.27 1.78 30.82"/><polygon class="cls-2" points="53.63 20.11 53.28 27 1.59 27 1.24 20.11 53.63 20.11"/></g></g></svg>