<svg xmlns="http://www.w3.org/2000/svg" viewBox="0 0 107.33 58.11"><defs><style>.cls-1{fill:#eaeaea;}.cls-2{fill:#fff;}</style></defs><title>game</title><g id="Layer_2" data-name="Layer 2"><g id="text"><path class="cls-1" d="M105.77,33.05l-2.1-4.66-8-17.9A17.75,17.75,0,0,0,67,5H40.3a17.53,17.53,0,0,0-5.11-3.49,17.85,17.85,0,0,0-23.51,8.94l-8,17.9-2.1,4.66A17.79,17.79,0,1,0,34,47.62l.77-1.72,4-9H68.52l4,9,.78,1.73a17.78,17.78,0,1,0,32.43-14.57ZM33.28,21.91h-4.6v4.6a1.72,1.72,0,0,1-1.26,1.65,1.51,1.51,0,0,1-.44.06,1.71,1.71,0,0,1-1.7-1.71v-4.6h-4.6a1.7,1.7,0,1,1,0-3.39h4.6V13.91A1.7,1.7,0,0,1,27,12.2a1.5,1.5,0,0,1,.44.07,1.69,1.69,0,0,1,1.26,1.64v4.61h4.6a1.7,1.7,0,1,1,0,3.39Zm52.51-4.18a2.49,2.49,0,1,1-2.47,2.48A2.49,2.49,0,0,1,85.79,17.73Zm-5.05-5.05a2.48,2.48,0,1,1-2.48,2.49A2.49,2.49,0,0,1,80.74,12.68Zm0,10.1a2.49,2.49,0,1,1-2.48,2.48A2.48,2.48,0,0,1,80.74,22.78Zm-5-5.05a2.49,2.49,0,1,1-2.48,2.48A2.47,2.47,0,0,1,75.69,17.73Z"/><path class="cls-2" d="M95.64,10.49A17.75,17.75,0,0,0,67,5H40.3a17.53,17.53,0,0,0-5.11-3.49,17.85,17.85,0,0,0-23.51,8.94l-8,17.9C10,36.48,21.17,42.81,34.77,45.9l4-9H68.52l4,9c13.59-3.08,24.74-9.41,31.11-17.5ZM33.28,21.91h-4.6v4.6a1.72,1.72,0,0,1-1.26,1.65,1.51,1.51,0,0,1-.44.06,1.71,1.71,0,0,1-1.7-1.71v-4.6h-4.6a1.7,1.7,0,1,1,0-3.39h4.6V13.91A1.7,1.7,0,0,1,27,12.2a1.5,1.5,0,0,1,.44.07,1.69,1.69,0,0,1,1.26,1.64v4.61h4.6a1.7,1.7,0,1,1,0,3.39Zm42.41.79a2.49,2.49,0,1,1,2.48-2.49A2.49,2.49,0,0,1,75.69,22.7Zm5,5.05a2.49,2.49,0,1,1,2.48-2.49A2.49,2.49,0,0,1,80.74,27.75Zm0-10.11a2.48,2.48,0,1,1,2.48-2.47A2.47,2.47,0,0,1,80.74,17.64Zm5.05,5.06a2.49,2.49,0,1,1,2.49-2.49A2.48,2.48,0,0,1,85.79,22.7Z"/></g></g></svg>