<svg xmlns="http://www.w3.org/2000/svg" viewBox="0 0 138.05 84.3"><defs><style>.cls-1{fill:#fff;}.cls-2{fill:#eaeaea;}</style></defs><title>Asset 93</title><g id="Layer_2" data-name="Layer 2"><g id="text"><path class="cls-1" d="M133.3,70.08H4.74A4.73,4.73,0,0,0,0,74.82v4.74A4.74,4.74,0,0,0,4.74,84.3H133.3a4.75,4.75,0,0,0,4.75-4.74V74.82A4.74,4.74,0,0,0,133.3,70.08ZM82,77.19H56V74.11H82Z"/><path class="cls-2" d="M121.18,0H16.86a4.73,4.73,0,0,0-4.74,4.74V65.33a4.73,4.73,0,0,0,4.74,4.75H121.18a4.74,4.74,0,0,0,4.75-4.75V4.74A4.74,4.74,0,0,0,121.18,0Zm-6.32,64.54H23.18a4.73,4.73,0,0,1-4.74-4.74V10.27a4.74,4.74,0,0,1,4.74-4.74h91.68a4.73,4.73,0,0,1,4.74,4.74V59.8c0,.14,0,.27,0,.39A4.72,4.72,0,0,1,114.86,64.54Z"/><path class="cls-2" d="M114.86,14.49v41.1a4.67,4.67,0,0,1-.21,1.41h0a4.74,4.74,0,0,1-4.53,3.32H27.92a4.74,4.74,0,0,1-4.74-4.74V14.49a4.74,4.74,0,0,1,4.74-4.74h82.2A4.74,4.74,0,0,1,114.86,14.49Z"/><path class="cls-1" d="M114.86,14.49v41.1a4.67,4.67,0,0,1-.21,1.41L41.5,9.75h68.62A4.74,4.74,0,0,1,114.86,14.49Z"/><path class="cls-1" d="M125.93,4.74V64.29l-6.35-4.1c0-.12,0-.25,0-.39V10.27a4.73,4.73,0,0,0-4.74-4.74H35L26.41,0h94.77A4.74,4.74,0,0,1,125.93,4.74Z"/></g></g></svg>