<svg xmlns="http://www.w3.org/2000/svg" viewBox="0 0 60.06 60.06"><defs><style>.cls-1{fill:#78d5cb;}</style></defs><title>Asset 89</title><g id="Layer_2" data-name="Layer 2"><g id="bg"><path class="cls-1" d="M33.2,26.36h0v-.07A.43.43,0,0,1,33.2,26.36Zm0,0h0v-.07A.43.43,0,0,1,33.2,26.36ZM30,0a30,30,0,1,0,30,30A30,30,0,0,0,30,0ZM22.09,44.83H14.92V23.24h7.17ZM18.5,20.29h-.05a3.74,3.74,0,1,1,.1-7.46,3.74,3.74,0,1,1-.05,7.46ZM48,44.83H40.8V33.27c0-2.9-1-4.88-3.64-4.88A3.9,3.9,0,0,0,33.48,31a4.75,4.75,0,0,0-.24,1.76V44.83H26.05s.1-19.57,0-21.59h7.19v3.05a7.11,7.11,0,0,1,6.46-3.57c4.73,0,8.27,3.09,8.27,9.72ZM33.24,26.36v-.07a.43.43,0,0,1,0,.07Zm0,0h0v-.07A.43.43,0,0,1,33.2,26.36Zm0,0h0v-.07A.43.43,0,0,1,33.2,26.36Z"/></g></g></svg>