<svg xmlns="http://www.w3.org/2000/svg" viewBox="0 0 60.32 60.33"><defs><style>.cls-1{fill:#2d506d;}</style></defs><title>pen</title><g id="Layer_2" data-name="Layer 2"><g id="text"><path class="cls-1" d="M36.8,45.25l.39,12.93a29,29,0,0,1-7,.85,29.78,29.78,0,0,1-7-.85l.39-12.93L22.38,30.06a.58.58,0,0,1,.58-.63H37.19a.73.73,0,0,1,.73.78Z"/><path class="cls-1" d="M32.64,16.32h-5l.81-2.89a.71.71,0,0,1,.66-.5h2a.7.7,0,0,1,.68.52Z"/><polygon class="cls-1" points="37.99 27.82 22.33 27.82 27.26 17.3 33.06 17.3 37.99 27.82"/><path class="cls-1" d="M29.65,8.84h.93a.74.74,0,0,1,.75.74V11.5a.51.51,0,0,1-.51.51H29.4a.51.51,0,0,1-.51-.51V9.59A.76.76,0,0,1,29.65,8.84Z"/><path class="cls-1" d="M30.17,60.33a30.16,30.16,0,1,1,7.18-.87A29.41,29.41,0,0,1,30.17,60.33Zm0-56.85A26.69,26.69,0,1,0,56.84,30.17,26.72,26.72,0,0,0,30.17,3.48Z"/></g></g></svg>